<svg width="56" height="57" viewBox="0 0 56 57" fill="none" xmlns="http://www.w3.org/2000/svg">
<g id="Baked" clip-path="url(#clip0_0_81)">
<path id="Vector" d="M37.5667 37.875H18.6083V50.825H37.5667V37.875Z" fill="#A6C44A"/>
<path id="Vector_2" d="M42.5833 12.5C42.35 12.5 42.0583 12.5 41.825 12.5583C40.0167 6.72501 34.1833 2.46667 27.2417 2.46667C21.1167 2.46667 15.8083 5.79167 13.4167 10.6333C6.76668 11.3333 1.57501 16.525 1.57501 22.8833C1.57501 29.7083 7.64168 35.3083 15.05 35.3083C19.4833 35.3083 23.45 33.325 25.9 30.2917C26.3083 30.35 26.775 30.35 27.2417 30.35C29.1667 30.35 31.0333 30 32.7833 29.3583C34.8833 32.275 38.5 34.2 42.6417 34.2C49.175 34.2 54.4833 29.3583 54.4833 23.35C54.4833 17.3417 49.1167 12.5 42.5833 12.5Z" fill="#F8B602"/>
<path id="Vector_3" d="M15.1083 36.4167C6.99998 36.4167 0.466644 30.35 0.466644 22.8834C0.466644 16.2334 5.71664 10.575 12.7166 9.52502C15.4583 4.50835 21.1166 1.30002 27.2416 1.30002C34.1833 1.30002 40.3666 5.38335 42.6416 11.3917C49.7583 11.3917 55.5916 16.7584 55.5916 23.4084C55.5916 30 49.7583 35.425 42.6416 35.425C38.6166 35.425 34.825 33.675 32.375 30.7584C30.6833 31.2833 28.9916 31.5167 27.2416 31.5167C26.95 31.5167 26.6583 31.5167 26.425 31.5167C23.625 34.6083 19.5416 36.4167 15.1083 36.4167ZM27.2416 3.57502C21.7583 3.57502 16.7416 6.55002 14.4666 11.1L14.175 11.6834L13.5333 11.7417C7.40831 12.4417 2.74164 17.225 2.74164 22.8834C2.74164 29.0667 8.28331 34.1417 15.1083 34.1417C19.075 34.1417 22.6916 32.45 25.025 29.5334L25.4333 29.0667L26.0166 29.125C26.3666 29.125 26.775 29.1833 27.2416 29.1833C28.9916 29.1833 30.7416 28.8917 32.375 28.3083L33.1916 28.0167L33.7166 28.7167C35.7 31.4584 39.025 33.0917 42.6416 33.0917C48.5333 33.0917 53.3166 28.7167 53.3166 23.4084C53.3166 18.1 48.475 13.6667 42.5833 13.6667C42.4083 13.6667 42.2333 13.6667 42.0583 13.6667L41.0083 13.725L40.7166 12.85C39.025 7.42502 33.4833 3.57502 27.2416 3.57502Z" fill="#2E2E2E"/>
<path id="Vector_4" d="M42.35 56.3667H13.65L7.9917 32.275L10.0334 33.15C11.6667 33.7917 13.3584 34.1417 15.1084 34.1417C19.075 34.1417 22.6917 32.45 25.025 29.5333L25.4334 29.0667L26.0167 29.125C26.3667 29.125 26.775 29.1833 27.2417 29.1833C28.9917 29.1833 30.7417 28.8917 32.375 28.3083L33.1917 28.0167L33.7167 28.7167C35.7 31.4583 39.025 33.0917 42.6417 33.0917C43.8667 33.0917 45.0917 32.9167 46.2584 32.5083L48.1834 31.8667L42.35 56.3667ZM15.4584 54.0917H40.6L45.0917 35.1333C44.275 35.25 43.4584 35.3667 42.6417 35.3667C38.6167 35.3667 34.825 33.6167 32.375 30.7C30.6834 31.225 28.9917 31.4583 27.2417 31.4583C26.95 31.4583 26.6584 31.4583 26.425 31.4583C23.625 34.6083 19.5417 36.4167 15.1084 36.4167C13.7667 36.4167 12.425 36.2417 11.2 35.95L15.4584 54.0917Z" fill="#2E2E2E"/>
<path id="Vector_5" d="M23.5667 40.2667H21.2917V47.9083H23.5667V40.2667Z" fill="#2E2E2E"/>
<path id="Vector_6" d="M29.225 40.2667H26.95V47.9083H29.225V40.2667Z" fill="#2E2E2E"/>
<path id="Vector_7" d="M34.825 40.2667H32.55V47.9083H34.825V40.2667Z" fill="#2E2E2E"/>
<path id="Vector_8" d="M13.5619 28.6733L11.7328 26.9569L10.176 28.6158L12.0051 30.3323L13.5619 28.6733Z" fill="#2E2E2E"/>
<path id="Vector_9" d="M15.3772 18.4461L13.5481 16.7296L11.9913 18.3885L13.8204 20.105L15.3772 18.4461Z" fill="#2E2E2E"/>
<path id="Vector_10" d="M44.6505 19.3141L42.8216 17.5974L41.2646 19.2561L43.0934 20.9728L44.6505 19.3141Z" fill="#2E2E2E"/>
<path id="Vector_11" d="M35.3825 21.5815L33.5535 19.8651L31.9967 21.524L33.8257 23.2404L35.3825 21.5815Z" fill="#2E2E2E"/>
<path id="Vector_12" d="M47.3567 27.7748L45.5277 26.0584L43.9709 27.7173L45.8 29.4338L47.3567 27.7748Z" fill="#2E2E2E"/>
<path id="Vector_13" d="M24.1422 23.2895L22.3131 21.5731L20.7563 23.232L22.5854 24.9484L24.1422 23.2895Z" fill="#2E2E2E"/>
<path id="Vector_14" d="M25.8272 13.2985L23.9982 11.5821L22.4414 13.241L24.2704 14.9574L25.8272 13.2985Z" fill="#2E2E2E"/>
<g id="Group">
<path id="Vector_15" d="M34.4964 10.5275L32.6673 8.811L31.1105 10.4699L32.9396 12.1864L34.4964 10.5275Z" fill="#2E2E2E"/>
</g>
</g>
<defs>
<clipPath id="clip0_0_81">
<rect width="56" height="56" fill="white" transform="translate(0 0.833344)"/>
</clipPath>
</defs>
</svg>
