<svg width="56" height="57" viewBox="0 0 56 57" fill="none" xmlns="http://www.w3.org/2000/svg">
<g id="Burger">
<path id="Vector" d="M55.7084 25.7417H0.291687V24.575C0.291687 14.075 12.1334 2.29169 28 2.29169C43.8667 2.29169 55.7084 14.075 55.7084 24.575V25.7417ZM2.68335 23.4084H53.375C52.5 14.3084 41.9417 4.56669 28 4.56669C14.0584 4.56669 3.50002 14.3084 2.68335 23.4084Z" fill="#2E2E2E"/>
<path id="Vector_2" d="M9.09998 18.8C12.3666 13.6667 19.6 9.23334 28 9.23334C36.4 9.23334 43.575 13.6667 46.9 18.8H9.09998ZM52.325 54.2083H3.67498C2.44998 54.2083 1.45831 53.2167 1.45831 51.9917V44.525H54.5416V51.9917C54.5416 53.2167 53.55 54.2083 52.325 54.2083Z" fill="#A6C44A"/>
<path id="Vector_3" d="M52.325 55.375H3.67502C1.80835 55.375 0.291687 53.8583 0.291687 51.9917V43.4167H55.7084V52.05C55.7084 53.8584 54.1917 55.375 52.325 55.375ZM2.62502 45.6917V51.9917C2.62502 52.575 3.09169 53.0417 3.67502 53.0417H52.3834C52.9667 53.0417 53.4334 52.575 53.4334 51.9917V45.6917H2.62502Z" fill="#2E2E2E"/>
<path id="Vector_4" d="M49.525 39.5083H6.47498C3.67498 39.5083 1.45831 37.2333 1.45831 34.4917C1.45831 31.6917 3.73331 29.475 6.47498 29.475H49.525C52.325 29.475 54.5416 31.75 54.5416 34.4917C54.5416 37.2917 52.325 39.5083 49.525 39.5083Z" fill="#F8B602"/>
<path id="Vector_5" d="M49.525 40.675H6.47502C3.03335 40.675 0.291687 37.875 0.291687 34.4917C0.291687 31.1084 3.09169 28.3083 6.47502 28.3083H49.525C52.9667 28.3083 55.7084 31.1084 55.7084 34.4917C55.7084 37.875 52.9084 40.675 49.525 40.675ZM6.47502 30.5834C4.31669 30.5834 2.56669 32.3334 2.56669 34.4917C2.56669 36.65 4.31669 38.4 6.47502 38.4H49.525C51.6834 38.4 53.4334 36.65 53.4334 34.4917C53.4334 32.3334 51.6834 30.5834 49.525 30.5834H6.47502Z" fill="#F8B602"/>
<path id="Vector_6" d="M30.8 36.65C29.6916 36.65 28.7 36.2417 27.7666 35.8917C27.0083 35.6 26.3083 35.3083 25.6666 35.3083C24.9083 35.25 24.0333 35.5417 23.1583 35.775C21.8166 36.1834 20.3 36.65 18.7833 36.125C18.3166 35.95 17.9083 35.7167 17.5583 35.5417C17.325 35.425 17.0916 35.25 16.8583 35.1917C15.75 34.725 14.4083 35.0167 12.95 35.3667L12.5416 35.4834C10.85 35.8334 8.39996 36.1834 6.64996 34.6667L8.16663 32.9167C8.92496 33.5583 10.15 33.675 12.075 33.2667L12.4833 33.15C14.1166 32.8 15.9833 32.3917 17.7916 33.0917C18.1416 33.2667 18.4333 33.4417 18.7833 33.5583C19.075 33.7333 19.3666 33.9083 19.6 33.9667C20.4166 34.2583 21.4083 33.9667 22.575 33.6167C23.625 33.325 24.675 32.975 25.9 33.0333C26.95 33.0917 27.825 33.4417 28.7 33.7917C29.6333 34.1417 30.5083 34.4917 31.2666 34.375C31.5583 34.3167 31.9083 34.2 32.3166 34.025C32.4916 33.9667 32.6083 33.9083 32.7833 33.85C34.5333 33.15 36.575 32.975 38.4416 33.3833C38.7333 33.4417 39.0833 33.5 39.375 33.6167C39.9583 33.7917 40.5416 33.9084 41.0666 33.9084C41.825 33.9084 42.6416 33.5583 43.4583 33.2667C43.8083 33.15 44.1583 32.975 44.5083 32.8584C46.4916 32.1583 48.2416 32.3333 49.4083 33.325L47.8916 35.075C47.1333 34.4334 45.7916 34.8417 45.2083 35.0167C44.9166 35.1333 44.5666 35.25 44.275 35.3667C43.2833 35.775 42.2333 36.1834 41.0083 36.1834C41.0083 36.1834 41.0083 36.1834 40.95 36.1834C40.1333 36.1834 39.375 36.0084 38.675 35.8334C38.3833 35.775 38.15 35.7167 37.8583 35.6584C36.4 35.3667 34.8833 35.4834 33.5416 36.0084C33.425 36.0667 33.25 36.125 33.1333 36.1834C32.6666 36.3584 32.2 36.5917 31.6166 36.65C31.325 36.5917 31.0916 36.65 30.8 36.65Z" fill="#2E2E2E"/>
<path id="Vector_7" d="M9.11769 19.3946L7.76434 17.4938L6.00614 18.7457L7.35949 20.6464L9.11769 19.3946Z" fill="#2E2E2E"/>
<path id="Vector_8" d="M40.0945 12.2137L38.7409 10.3131L36.9829 11.5652L38.3365 13.4657L40.0945 12.2137Z" fill="#2E2E2E"/>
<path id="Vector_9" d="M34.5034 9.87134L33.1501 7.97058L31.3919 9.22243L32.7452 11.1232L34.5034 9.87134Z" fill="#2E2E2E"/>
<path id="Vector_10" d="M13.4828 14.9959L11.9265 13.2574L10.8834 14.1912L12.4397 15.9297L13.4828 14.9959Z" fill="#2E2E2E"/>
<path id="Vector_11" d="M21.0213 11.2406L20.1235 9.08698L18.4544 9.78281L19.3522 11.9365L21.0213 11.2406Z" fill="#2E2E2E"/>
<path id="Vector_12" d="M15.4572 20.4125L14.4672 18.2996L13.2523 18.8689L14.2423 20.9818L15.4572 20.4125Z" fill="#2E2E2E"/>
<path id="Vector_13" d="M26.6583 10.05L25.2 8.24168C25.9 7.65835 26.775 7.25001 27.65 7.07501L28.175 9.29168C27.5916 9.46668 27.0666 9.70001 26.6583 10.05ZM17.7916 16.875L17.2083 14.6583C17.7333 14.5417 18.2583 14.3083 18.725 14.075L19.775 16.1167C19.1333 16.4083 18.4916 16.6417 17.7916 16.875Z" fill="#2E2E2E"/>
<path id="Vector_14" d="M30.8663 20.0158L30.1247 17.8034L28.1889 18.4523L28.9305 20.6646L30.8663 20.0158Z" fill="#2E2E2E"/>
<path id="Vector_15" d="M42.6121 20.7421L41.8705 18.5298L39.9347 19.1787L40.6763 21.391L42.6121 20.7421Z" fill="#2E2E2E"/>
<path id="Vector_16" d="M35.6417 21.1917L34.7083 19.0917C35.2917 18.8583 35.875 18.625 36.4583 18.5083L36.925 20.7833C36.4583 20.9 35.9917 21.0167 35.6417 21.1917ZM32.6667 16.7L31.7333 14.6C32.3167 14.3667 32.9 14.1917 33.4833 14.0167L33.95 16.2917C33.4833 16.35 33.075 16.525 32.6667 16.7Z" fill="#2E2E2E"/>
<path id="Vector_17" d="M26.931 15.2251L26.187 13.0135L24.86 13.46L25.6041 15.6715L26.931 15.2251Z" fill="#2E2E2E"/>
<path id="Vector_18" d="M16.0246 12.3735L15.2795 10.1624L13.9528 10.6094L14.6979 12.8206L16.0246 12.3735Z" fill="#2E2E2E"/>
<path id="Vector_19" d="M24.0144 20.8414L23.2693 18.6302L21.9426 19.0773L22.6877 21.2885L24.0144 20.8414Z" fill="#2E2E2E"/>
<g id="Group">
<path id="Vector_20" d="M48.1248 19.0893L47.3807 16.8778L46.0538 17.3243L46.7979 19.5358L48.1248 19.0893Z" fill="#2E2E2E"/>
</g>
<g id="Group_2">
<path id="Vector_21" d="M43.9296 16.5487L43.1855 14.3372L41.8586 14.7837L42.6027 16.9952L43.9296 16.5487Z" fill="#2E2E2E"/>
</g>
</g>
</svg>
