<svg width="56" height="57" viewBox="0 0 56 57" fill="none" xmlns="http://www.w3.org/2000/svg">
<g id="Chicken">
<path id="Vector" d="M14.4083 55.9584C9.97497 55.9584 5.54164 54.3834 2.79997 50.825C0.408302 47.7334 -0.291698 43.5917 0.699968 39.1C1.6333 35.0167 3.96663 31.1667 6.99997 28.8917C11.9583 25.1 35.0583 13.55 41.1833 21.5417C43.8083 25.0417 42.525 30.9334 37.45 38.575C33.4833 44.525 28.1166 50.2417 25.0833 52.5167C22.225 54.7334 18.3166 55.9584 14.4083 55.9584ZM34.0083 21.0167C26.075 21.0167 12.8916 27.3167 8.39997 30.7C5.8333 32.6834 3.79164 36.0084 2.97497 39.5667C2.09997 43.3584 2.74164 46.8584 4.66664 49.425C8.92497 54.9667 18.4916 54.675 23.6833 50.7667C26.6 48.55 31.85 42.8917 35.525 37.35C39.9583 30.6417 41.3 25.5667 39.3166 22.9417C38.2666 21.6 36.3416 21.0167 34.0083 21.0167Z" fill="#2E2E2E"/>
<path id="Vector_2" d="M14.4666 50.1833C11.375 50.1833 8.80831 49.1333 7.40831 47.325C6.12498 45.6333 5.71664 43.0667 6.35831 40.3833C6.94164 37.5833 8.51664 34.9583 10.5 33.5C14.6416 30.35 27.0666 24.5167 34.0083 24.5167C35.8166 24.5167 36.5166 24.925 36.6333 25.0417C36.9833 25.45 37.275 28.4833 32.6666 35.425C28.8166 41.1417 23.7416 46.3333 21.525 48.025C19.775 49.3667 17.0916 50.1833 14.4666 50.1833Z" fill="#F8B602"/>
<path id="Vector_3" d="M53.7249 17.1667C53.2583 16.525 52.6749 16.0583 52.0333 15.7083C50.8083 15.0667 49.8749 13.9 49.6416 12.5583C49.4666 11.8583 49.1749 11.1583 48.7083 10.575C47.2499 8.76666 44.2749 8.35833 42.3499 9.69999C40.1916 11.2167 39.7249 14.25 41.2999 16.35C41.7083 16.875 41.6499 17.6333 41.1249 17.9833L37.8583 20.4917C38.7916 20.9 39.6083 21.425 40.1916 22.2417C40.7749 23 41.1249 23.9333 41.2416 24.925L44.5083 22.4167C45.0333 22.0083 45.7333 22.125 46.1416 22.65C47.7749 24.75 50.8083 25.1 52.8499 23.4083C54.7166 22.0083 55.0666 19.0333 53.7249 17.1667Z" fill="#A6C44A"/>
<path id="Vector_4" d="M40.3667 27.0833L40.1334 25.1C40.0167 24.225 39.7834 23.525 39.3167 22.9417C38.85 22.3583 38.2667 21.8917 37.45 21.6L35.5834 20.8417L40.4834 17.1083L40.425 17.05C39.4334 15.7667 39.025 14.1917 39.3167 12.6167C39.55 11.0417 40.425 9.64167 41.7084 8.70833C44.1 7.01667 47.7167 7.48333 49.5834 9.81667C50.1667 10.575 50.575 11.3917 50.75 12.2667C50.9834 13.3167 51.625 14.1917 52.5584 14.6583C53.375 15.0667 54.075 15.7083 54.6584 16.4667C56.4084 18.8583 55.8834 22.475 53.6084 24.3417C52.3834 25.3917 50.8084 25.8 49.2334 25.625C47.6584 25.45 46.2584 24.6333 45.2667 23.35L45.2084 23.2917L40.3667 27.0833ZM45.2084 21.075C45.325 21.075 45.4417 21.075 45.5 21.075C46.1417 21.1333 46.6667 21.4833 47.075 22.0083C47.6584 22.7667 48.5334 23.2917 49.4667 23.4083C50.4584 23.525 51.3917 23.2333 52.15 22.5917C53.4917 21.4833 53.7834 19.2083 52.7917 17.8083C52.4417 17.3417 52.0334 16.9917 51.5667 16.7C49.9917 15.8833 48.8834 14.4833 48.5334 12.7333C48.4167 12.2083 48.1834 11.6833 47.8334 11.2167C46.725 9.875 44.45 9.58333 43.05 10.575C42.2334 11.1583 41.7084 11.975 41.5917 12.9083C41.4167 13.8417 41.7084 14.8333 42.2917 15.5917C42.7 16.1167 42.875 16.7 42.7584 17.3417C42.7 17.925 42.35 18.5083 41.8834 18.8583L40.0167 20.3167C40.4834 20.6667 40.8334 21.0167 41.1834 21.4833C41.5334 21.95 41.7667 22.4167 42 22.9417L43.8667 21.4833C44.275 21.25 44.7417 21.075 45.2084 21.075Z" fill="#2E2E2E"/>
<path id="Vector_5" d="M7.90397 37.475L6.22736 37.2498L5.91674 39.5623L7.59335 39.7875L7.90397 37.475Z" fill="#2E2E2E"/>
<path id="Vector_6" d="M20.3849 37.8235L18.7083 37.5983L18.3977 39.9108L20.0743 40.136L20.3849 37.8235Z" fill="#2E2E2E"/>
<path id="Vector_7" d="M31.7651 35.1952L30.0884 34.97L29.7778 37.2826L31.4544 37.5078L31.7651 35.1952Z" fill="#2E2E2E"/>
<path id="Vector_8" d="M14.902 48.3785L13.2254 48.1533L12.9148 50.4659L14.5914 50.6911L14.902 48.3785Z" fill="#2E2E2E"/>
<path id="Vector_9" d="M18.9258 31.1714L17.2491 30.9462L16.9385 33.2588L18.6151 33.484L18.9258 31.1714Z" fill="#2E2E2E"/>
<path id="Vector_10" d="M30.7143 25.6283L29.0377 25.4031L28.727 27.7156L30.4037 27.9408L30.7143 25.6283Z" fill="#2E2E2E"/>
<path id="Vector_11" d="M15.6333 1.70834H13.3V8.94168H15.6333V1.70834Z" fill="#2E2E2E"/>
<path id="Vector_12" d="M8.75002 11.8H6.41669V19.0334H8.75002V11.8Z" fill="#2E2E2E"/>
<g id="Group">
<path id="Vector_13" d="M22.575 9.52502H20.2417V16.7584H22.575V9.52502Z" fill="#2E2E2E"/>
</g>
</g>
</svg>
