<svg width="56" height="57" viewBox="0 0 56 57" fill="none" xmlns="http://www.w3.org/2000/svg">
<g id="Coffee" clip-path="url(#clip0_0_126)">
<path id="Vector" d="M11.4917 50.3C10.9083 49.775 10.325 49.1333 9.79999 48.55L11.55 47.0333C12.0167 47.5583 12.5417 48.1417 13.0667 48.6083L11.4917 50.3ZM7.64166 45.6333C7.23333 44.9333 6.82499 44.2333 6.41666 43.5333L8.45833 42.4833C8.80833 43.125 9.15833 43.7667 9.56666 44.4083L7.64166 45.6333ZM5.07499 40.15C4.84166 39.3917 4.60833 38.575 4.43333 37.8167L6.70833 37.35C6.88333 38.05 7.05833 38.75 7.29166 39.45L5.07499 40.15ZM3.96666 34.2C3.90833 33.675 3.90833 33.2083 3.90833 32.6833C3.90833 32.3917 3.90833 32.1 3.90833 31.75L6.24166 31.8667C6.24166 32.1583 6.24166 32.3917 6.24166 32.6833C6.24166 33.15 6.24166 33.6167 6.29999 34.025L3.96666 34.2ZM6.59166 28.6L4.31666 28.1917C4.49166 27.375 4.66666 26.6167 4.89999 25.8583L7.11666 26.5C6.88333 27.2 6.70833 27.9 6.59166 28.6ZM8.28333 23.4083L6.18333 22.4167C6.53333 21.7167 6.88333 20.9583 7.34999 20.2583L9.33333 21.425C8.92499 22.125 8.57499 22.7667 8.28333 23.4083ZM45.3833 49.425L43.75 47.7917C44.275 47.2667 44.7417 46.6833 45.2083 46.1583L47.0167 47.5583C46.4917 48.2 45.9667 48.8417 45.3833 49.425ZM49 44.525L47.0167 43.4167C47.3667 42.775 47.7167 42.1333 48.0083 41.4333L50.1083 42.3667C49.7583 43.125 49.4083 43.825 49 44.525ZM51.275 38.9833L49.0583 38.4C49.2333 37.7 49.4083 37 49.525 36.2417L51.8 36.5917C51.6833 37.35 51.5083 38.1667 51.275 38.9833ZM52.0917 32.975H49.7583V32.7417C49.7583 32.1 49.7 31.4 49.6417 30.7583L51.9167 30.525C51.975 31.225 52.0333 31.9833 52.0333 32.6833L52.0917 32.975ZM49.175 27.4917C49 26.7917 48.7667 26.0917 48.5333 25.3917L50.6917 24.6333C50.9833 25.3917 51.2167 26.15 51.3917 26.9667L49.175 27.4917ZM47.1917 22.4167C46.8417 21.775 46.4917 21.1333 46.0833 20.55L48.0083 19.2667C48.475 19.9083 48.8833 20.6083 49.2917 21.3667L47.1917 22.4167Z" fill="#2E2E2E"/>
<path id="Vector_2" d="M12.8917 2.29169H43.1083L47.0167 10.05H8.98334L12.8917 2.29169Z" fill="#A6C44A"/>
<path id="Vector_3" d="M48.9417 11.2167H7.1167L12.1917 1.125H43.8667L48.9417 11.2167ZM10.85 8.88333H45.2084L42.4667 3.4H13.65L10.85 8.88333Z" fill="#2E2E2E"/>
<path id="Vector_4" d="M16.8 55.375H39.2L40.6 44.35H15.4L16.8 55.375Z" fill="white"/>
<path id="Vector_5" d="M40.25 56.5417H15.75L14.1167 43.1833H41.9417L40.25 56.5417ZM17.7917 54.2084H38.2084L39.3167 45.4584H16.6834L17.7917 54.2084Z" fill="#2E2E2E"/>
<path id="Vector_6" d="M44.8583 10.05H11.1417L12.4833 21.075H43.5167L44.8583 10.05Z" fill="white"/>
<path id="Vector_7" d="M44.5083 22.2417H11.4917L9.85834 8.88336H46.2L44.5083 22.2417ZM13.5333 19.9084H42.4667L43.575 11.1584H12.425L13.5333 19.9084Z" fill="#2E2E2E"/>
<g id="Group">
<path id="Vector_8" d="M12.4833 21.075L15.4 44.35H40.6L43.5167 21.075H12.4833Z" fill="#F8B602"/>
<path id="Vector_9" d="M41.5917 45.5167H14.4083L11.2 19.9667H44.8L41.5917 45.5167ZM16.3917 43.1833H39.55L42.175 22.2417H13.825L16.3917 43.1833Z" fill="#F8B602"/>
</g>
<g id="Group_2">
<path id="Vector_10" d="M28.0001 40.675C31.5117 40.675 34.3584 37.1231 34.3584 32.7417C34.3584 28.3602 31.5117 24.8083 28.0001 24.8083C24.4884 24.8083 21.6417 28.3602 21.6417 32.7417C21.6417 37.1231 24.4884 40.675 28.0001 40.675Z" fill="white"/>
<path id="Vector_11" d="M28 41.7833C23.8584 41.7833 20.475 37.7 20.475 32.6833C20.475 27.6667 23.8584 23.6417 28 23.6417C32.1417 23.6417 35.525 27.725 35.525 32.7417C35.525 37.7583 32.1417 41.7833 28 41.7833ZM28 25.9167C25.1417 25.9167 22.8084 28.95 22.8084 32.6833C22.8084 36.4167 25.1417 39.45 28 39.45C30.8584 39.45 33.1917 36.4167 33.1917 32.6833C33.1917 28.95 30.8584 25.9167 28 25.9167Z" fill="#2E2E2E"/>
</g>
<g id="Group_3">
<path id="Vector_12" d="M27.475 40.9083C26.8333 39.275 26.775 37.525 27.2416 35.8333C27.3583 35.425 27.5333 35.0167 27.65 34.6667C27.825 34.1417 28 33.675 28.1166 33.2667C28.2333 32.5083 28.1166 31.6333 27.7666 30.7583C27.4166 29.8833 26.8333 29.0083 26.25 28.1917C25.9 27.725 25.6083 27.2 25.375 26.6167C25.0833 25.8 25.025 24.9833 25.3166 24.2833L27.475 25.1583C27.4166 25.3333 27.4166 25.5667 27.5333 25.8C27.65 26.15 27.8833 26.5 28.175 26.85C28.8166 27.7833 29.4583 28.775 29.925 29.8833C30.45 31.1667 30.625 32.5083 30.45 33.675C30.3333 34.375 30.1 34.9583 29.8666 35.5417C29.75 35.8917 29.6333 36.1833 29.5166 36.5333C29.1666 37.7 29.225 38.9833 29.6916 40.0917L27.475 40.9083Z" fill="#2E2E2E"/>
</g>
</g>
<defs>
<clipPath id="clip0_0_126">
<rect width="56" height="56" fill="white" transform="translate(0 0.833344)"/>
</clipPath>
</defs>
</svg>
