<svg width="56" height="57" viewBox="0 0 56 57" fill="none" xmlns="http://www.w3.org/2000/svg">
<g id="Fast" clip-path="url(#clip0_0_161)">
<path id="Vector" d="M31.7334 49.6583C22.4001 53.7417 11.4917 49.4833 7.40839 40.15C3.32505 30.8167 7.58339 19.9083 16.9167 15.825C21.5834 13.7833 26.6584 13.8417 31.0334 15.5333L32.9584 10.575C27.3001 8.35835 20.7667 8.30001 14.7584 10.925C2.74172 16.175 -2.74161 30.2333 2.50839 42.25C7.75839 54.2667 21.8167 59.75 33.8334 54.5C45.8501 49.25 51.3334 35.1917 46.0834 23.175L41.2417 25.3333C45.3251 34.6667 41.0667 45.575 31.7334 49.6583Z" fill="#F8B602"/>
<path id="Vector_2" d="M38.85 7.6C43.2833 9.29166 47.0166 12.7333 49.0583 17.4L53.9 15.2417C51.275 9.23333 46.4916 4.85833 40.775 2.64166L38.85 7.6Z" fill="#A6C44A"/>
<path id="Vector_3" d="M48.475 18.9167L48.0084 17.8667C46.1417 13.6083 42.7584 10.4 38.4417 8.70833L37.3334 8.24167L40.1334 1.125L41.2417 1.53333C47.425 3.98333 52.325 8.65 55.0084 14.775L55.475 15.825L48.475 18.9167ZM40.3667 6.95833C44.3917 8.825 47.6 11.9167 49.6417 15.8833L52.3834 14.7167C50.05 10.05 46.2584 6.375 41.475 4.21667L40.3667 6.95833Z" fill="#2E2E2E"/>
<path id="Vector_4" d="M49.0584 17.4C47.0167 12.7333 43.2834 9.35001 38.8501 7.60001L32.1417 24.8083L49.0584 17.4Z" fill="#F8B602"/>
<path id="Vector_5" d="M30.0416 27.025L38.2083 6.08334L39.3166 6.49168C44.2166 8.41668 48.0666 12.0917 50.1666 16.9333L50.6333 17.9833L30.0416 27.025ZM39.4916 9.11668L34.2416 22.5917L47.4833 16.8167C45.7333 13.4333 42.9333 10.75 39.4916 9.11668Z" fill="#2E2E2E"/>
<path id="Vector_6" d="M24.325 52.4C16.7417 52.4 9.50833 48.025 6.3 40.6167C1.925 30.7 6.475 19.0917 16.3917 14.7167C21.175 12.6167 26.5417 12.5 31.4417 14.425L32.55 14.8333L26.425 30.525L41.825 23.7583L42.2917 24.8083C44.3917 29.5917 44.5083 34.9583 42.5833 39.8583C40.6583 44.7583 36.9833 48.6083 32.1417 50.7083C29.6333 51.875 27.0083 52.4 24.325 52.4ZM8.45833 39.6833C12.3083 48.4333 22.5167 52.4 31.2667 48.6083C35.525 46.7417 38.7333 43.3583 40.425 39.0417C41.9417 35.075 42 30.8167 40.6 26.9083L22.225 34.9583L29.5167 16.2333C25.55 14.95 21.2333 15.1833 17.3833 16.875C8.63333 20.725 4.66667 30.9333 8.45833 39.6833Z" fill="#2E2E2E"/>
<path id="Vector_7" d="M17.9084 45.3417C19.5192 45.3417 20.825 44.0359 20.825 42.425C20.825 40.8142 19.5192 39.5084 17.9084 39.5084C16.2975 39.5084 14.9917 40.8142 14.9917 42.425C14.9917 44.0359 16.2975 45.3417 17.9084 45.3417Z" fill="#A6C44A"/>
<path id="Vector_8" d="M17.9084 46.5084C16.3334 46.5084 14.8167 45.575 14.1167 44.0584C13.65 43.0667 13.65 41.9584 14.0584 40.9084C14.4667 39.8584 15.225 39.1 16.2167 38.6334C17.2084 38.1667 18.3167 38.1667 19.3667 38.575C20.4167 38.9834 21.175 39.7417 21.6417 40.7334C22.1084 41.725 22.1084 42.8334 21.7 43.8834C21.2917 44.9334 20.5334 45.6917 19.5417 46.1584C19.0167 46.3917 18.4334 46.5084 17.9084 46.5084ZM17.9084 40.6167C17.675 40.6167 17.4417 40.675 17.2084 40.7917C16.8 40.9667 16.45 41.3167 16.275 41.7834C16.1 42.25 16.1 42.7167 16.275 43.125C16.6834 44 17.7334 44.4084 18.6084 44.0584C19.0167 43.8834 19.3667 43.5334 19.5417 43.0667C19.7167 42.6 19.7167 42.1334 19.5417 41.725C19.3667 41.3167 19.0167 40.9667 18.55 40.7917C18.3167 40.675 18.0834 40.6167 17.9084 40.6167Z" fill="#A6C44A"/>
<path id="Vector_9" d="M15.9833 26.9667C17.4008 26.9667 18.55 25.8175 18.55 24.4C18.55 22.9825 17.4008 21.8333 15.9833 21.8333C14.5658 21.8333 13.4166 22.9825 13.4166 24.4C13.4166 25.8175 14.5658 26.9667 15.9833 26.9667Z" fill="#A6C44A"/>
<path id="Vector_10" d="M15.9833 28.1333C15.5166 28.1333 15.05 28.075 14.6416 27.9C13.7083 27.55 13.0083 26.85 12.6 25.9167C12.1916 24.9833 12.1916 23.9917 12.5416 23.0583C12.8916 22.125 13.5916 21.425 14.525 21.0167C16.3916 20.2 18.6083 21.075 19.425 22.9417C20.2416 24.8083 19.3666 27.025 17.5 27.8417C17.0333 28.0167 16.5083 28.1333 15.9833 28.1333ZM15.9833 23.0583C15.8083 23.0583 15.6333 23.1167 15.4583 23.175C15.1083 23.35 14.875 23.5833 14.7 23.9333C14.5833 24.2833 14.5833 24.6333 14.7 24.9833C14.8166 25.3333 15.1083 25.5667 15.4583 25.7417C15.8083 25.8583 16.1583 25.8583 16.5083 25.7417C17.2083 25.45 17.5 24.6333 17.2083 23.9333C17.0333 23.35 16.5083 23.0583 15.9833 23.0583Z" fill="#A6C44A"/>
<path id="Vector_11" d="M32.9584 44.7C32.4917 44.7 32.0834 44.6417 31.6167 44.4667C30.6834 44.1167 29.9834 43.4167 29.5751 42.5417L31.7334 41.6083C31.8501 41.9583 32.1417 42.1917 32.4334 42.3083C32.7834 42.425 33.1334 42.425 33.4251 42.3083C34.0667 42.0167 34.4167 41.2583 34.1251 40.5583L36.2834 39.625C37.1001 41.4917 36.2251 43.65 34.4167 44.4667C33.9501 44.6417 33.4834 44.7 32.9584 44.7ZM40.5417 18.45C39.1417 18.45 37.8001 17.6333 37.1584 16.2333L39.3167 15.3C39.6084 15.9417 40.3667 16.2917 41.0667 16C41.7084 15.7083 42.0584 14.95 41.7667 14.25L43.9251 13.3167C44.7417 15.1833 43.8667 17.3417 42.0584 18.1583C41.5334 18.3917 41.0667 18.45 40.5417 18.45Z" fill="#2E2E2E"/>
<path id="Vector_12" d="M10.8684 34.2538L8.54578 34.0308L8.37855 35.7728L10.7011 35.9957L10.8684 34.2538Z" fill="#2E2E2E"/>
<path id="Vector_13" d="M13.5333 39.0417L11.2583 38.575C11.375 37.9334 11.6666 37.2917 12.075 36.7667L13.9416 38.1667C13.7083 38.4584 13.5916 38.75 13.5333 39.0417ZM16.45 33.9084L14.525 32.5667C14.8166 32.1 15.225 31.75 15.6916 31.4L17.0333 33.325C16.8 33.4417 16.625 33.675 16.45 33.9084Z" fill="#2E2E2E"/>
<path id="Vector_14" d="M23.1208 27.704L21.0125 26.7045L20.4877 27.8114L22.5961 28.8109L23.1208 27.704Z" fill="#2E2E2E"/>
<path id="Vector_15" d="M42.0447 11.7706L39.9349 10.7738L39.4116 11.8814L41.5214 12.8782L42.0447 11.7706Z" fill="#2E2E2E"/>
<path id="Vector_16" d="M26.0166 21.6L23.6833 21.1917C23.8 20.6083 24.0333 20.025 24.3833 19.5583L26.3083 20.9C26.1333 21.075 26.075 21.3667 26.0166 21.6ZM21.7583 20.025L19.4833 19.3833C19.6583 18.8 19.95 18.2167 20.4166 17.75L22.1083 19.3833C21.9916 19.5583 21.8166 19.7917 21.7583 20.025ZM9.44997 28.6583C9.21664 28.0167 9.21664 27.3167 9.56664 26.675L11.6666 27.7833L9.44997 28.6583Z" fill="#2E2E2E"/>
<path id="Vector_17" d="M23.6112 38.7143L22.6758 36.5767L21.7673 36.9742L22.7027 39.1119L23.6112 38.7143Z" fill="#2E2E2E"/>
<path id="Vector_18" d="M26.1502 43.2767L25.2126 41.14L24.3046 41.5385L25.2421 43.6752L26.1502 43.2767Z" fill="#2E2E2E"/>
<path id="Vector_19" d="M24.9236 47.6736L24.4576 45.3873L23.0287 45.6785L23.4946 47.9649L24.9236 47.6736Z" fill="#2E2E2E"/>
<path id="Vector_20" d="M31.3694 46.9166L30.115 44.9491L28.4918 45.984L29.7462 47.9514L31.3694 46.9166Z" fill="#2E2E2E"/>
<path id="Vector_21" d="M26.775 38.6917C26.775 37.875 27.125 37.1167 27.7667 36.65L29.225 38.5167C29.1667 38.5167 29.1667 38.575 29.1667 38.6334L26.775 38.6917Z" fill="#2E2E2E"/>
<path id="Vector_22" d="M33.0205 33.1355L31.7057 31.2079L30.5009 32.0297L31.8158 33.9573L33.0205 33.1355Z" fill="#2E2E2E"/>
<g id="Group">
<path id="Vector_23" d="M34.0084 38.4L33.3667 36.125C33.5417 36.0667 33.775 35.95 33.8917 35.8333L35.4084 37.6417C35 37.9917 34.5334 38.225 34.0084 38.4Z" fill="#2E2E2E"/>
</g>
<g id="Group_2">
<path id="Vector_24" d="M39.4254 32.3916L37.7325 30.7857L36.4077 32.1823L38.1005 33.7881L39.4254 32.3916Z" fill="#2E2E2E"/>
</g>
<g id="Group_3">
<path id="Vector_25" d="M20.6928 34.2834L18.6458 33.1635L18.2538 33.88L20.3008 34.9998L20.6928 34.2834Z" fill="#2E2E2E"/>
</g>
<g id="Group_4">
<path id="Vector_26" d="M38.612 19.359L36.5654 18.2383L36.1732 18.9546L38.2197 20.0753L38.612 19.359Z" fill="#2E2E2E"/>
</g>
</g>
<defs>
<clipPath id="clip0_0_161">
<rect width="56" height="56" fill="white" transform="translate(0 0.833344)"/>
</clipPath>
</defs>
</svg>
