<svg width="56" height="57" viewBox="0 0 56 57" fill="none" xmlns="http://www.w3.org/2000/svg">
<g id="Fish" clip-path="url(#clip0_0_194)">
<path id="Vector" d="M34.7083 37.4083C30.2167 37.4083 21.2333 33.15 14.0583 25.975C9.50833 21.425 7.93333 16.4083 7.875 12.85L9.39167 10.4L11.4917 8.82501C11.55 8.82501 11.6667 8.82501 11.725 8.82501C14.4667 8.82501 19.8333 9.64168 25.1417 14.8917C29.3417 19.0917 33.0167 24.5167 35.0583 29.4167C36.9833 34.1417 36.6917 36.7083 36.225 37.1167C36.1667 37.175 35.7 37.4083 34.7083 37.4083Z" fill="#F8B602"/>
<path id="Vector_2" d="M19.1916 28.7167C18.7833 28.7167 18.4916 28.5417 18.375 28.4834C17.2666 27.9 16.45 26.7917 15.9833 25.3917C15.6333 24.225 15.6333 23.0584 15.6333 22.0084L17.9083 21.95C17.9083 22.8834 17.9666 23.875 18.2 24.75C18.3166 25.1 18.4333 25.3917 18.6083 25.6834C18.6666 25.45 18.6666 24.9834 19.0166 24.575C19.5416 23.9334 20.475 23.7584 21.35 24.225C21.4666 24.2834 21.5833 24.3417 21.7 24.4C21.7583 24.4584 21.8166 24.4584 21.875 24.5167C21.875 24.5167 21.875 24.5167 21.875 24.4584C21.9333 24.2834 21.9333 24.05 21.875 23.7C21.875 23.5834 21.8166 23.525 21.8166 23.4084C21.7583 23.0584 21.6416 22.7084 21.6416 22.3C21.6416 21.425 22.1083 20.6084 22.8666 20.3167C23.45 20.0834 24.0333 20.1417 24.4416 20.2584L23.975 18.5667C23.8583 18.1584 23.975 17.75 24.2666 17.4584C24.2666 17.4584 24.2666 17.4584 24.325 17.4C23.275 17.225 22.1083 17.3417 21 17.4584L20.7666 15.1834C22.05 15.0667 23.5083 14.8917 24.9083 15.1834C26.6583 15.5334 28.0583 16.4667 28.8166 17.75C28.9916 18.0417 28.9916 18.45 28.875 18.8C28.7 19.15 28.4083 19.3834 28.0583 19.4417C27.5916 19.5 27.125 19.5584 26.6583 19.5584L26.7166 19.7334C27.0083 20.7834 26.8333 21.6 26.25 22.125C25.4916 22.7667 24.6166 22.5334 24.15 22.4167C24.0916 22.4167 24.0333 22.4167 24.0333 22.3584C24.0333 22.475 24.0916 22.65 24.15 22.825C24.15 22.9417 24.2083 23.0584 24.2083 23.175C24.3833 23.9917 24.325 24.6917 24.0916 25.275C23.6833 26.2084 22.75 26.7917 21.8166 26.675C21.4083 26.6167 21.1166 26.5 20.8833 26.325L20.7666 27.0834C20.5916 28.3667 19.775 28.6 19.4833 28.6C19.3083 28.7167 19.25 28.7167 19.1916 28.7167Z" fill="#2E2E2E"/>
<path id="Vector_3" d="M15.2251 12.0333C14.2917 12.9667 12.8334 12.9667 11.9001 12.0333C10.9667 11.1 10.9667 9.64166 11.9001 8.70833C12.8334 7.775 14.2917 7.775 15.2251 8.70833C16.1584 9.64166 16.1584 11.1 15.2251 12.0333Z" fill="#A6C44A"/>
<path id="Vector_4" d="M13.5333 13.8417C12.5999 13.8417 11.7249 13.4917 11.0833 12.7917C9.74161 11.45 9.74161 9.23336 11.0833 7.83336C11.7249 7.19169 12.5999 6.78336 13.5333 6.78336C14.4666 6.78336 15.3416 7.13336 15.9833 7.83336C17.3249 9.17502 17.3249 11.3917 15.9833 12.7917C15.3416 13.4917 14.4666 13.8417 13.5333 13.8417ZM13.5333 9.11669C13.1833 9.11669 12.8916 9.23336 12.6583 9.46669C12.1916 9.93336 12.1916 10.75 12.6583 11.2167C13.1249 11.6834 13.9416 11.6834 14.4083 11.2167C14.8749 10.75 14.8749 9.93336 14.4083 9.46669C14.1749 9.23336 13.8833 9.11669 13.5333 9.11669Z" fill="#2E2E2E"/>
<path id="Vector_5" d="M34.7083 42.8917C28.0583 42.8917 17.7917 37.4083 10.2083 29.825C1.45833 21.075 1.80833 11.5083 3.20833 7.65834L3.49999 6.78334L5.83333 7.01667L5.54166 4.56668L6.29999 4.21668C10.675 2.40834 20.7083 2.64167 28.9917 10.9833C38.675 20.6667 45.5 35.5417 40.075 40.9667C38.85 42.1917 37.0417 42.8917 34.7083 42.8917ZM5.07499 9.23334C4.02499 13.4333 4.95833 21.3083 11.7833 28.1917C18.8417 35.25 28.7 40.5583 34.7083 40.5583C36.4 40.5583 37.6833 40.15 38.5583 39.275C42.525 35.3083 36.9833 22.0667 27.475 12.5C20.3583 5.50001 12.1333 4.80001 7.99166 6.02501L8.39999 9.64167L5.07499 9.23334Z" fill="#2E2E2E"/>
<g id="Group">
<path id="Vector_6" d="M40.95 35.95C40.8917 37.7 40.3667 39.1583 39.3751 40.15C38.3834 41.1417 36.925 41.6667 35.175 41.725L38.6167 54.325L53.4917 39.3333L40.95 35.95Z" fill="#A6C44A"/>
<path id="Vector_7" d="M37.975 56.4833L33.6583 40.6167L35.0583 40.5583C36.575 40.5 37.7417 40.0917 38.5 39.275C39.2583 38.5167 39.6667 37.35 39.7833 35.8334L39.8417 34.4333L55.7083 38.75L37.975 56.4833ZM36.575 42.7167L39.1417 52.1667L51.3333 39.9167L41.8833 37.35C41.5917 38.8083 41.0083 39.975 40.1333 40.9083C39.2583 41.8417 38.0333 42.425 36.575 42.7167Z" fill="#2E2E2E"/>
</g>
<g id="Group_2">
<path id="Vector_8" d="M26.425 53.275C25.725 53.275 25.025 53.275 24.3833 53.2167L24.5583 50.9417C25.2 51 25.8416 51 26.425 51C26.5416 51 26.6 51 26.7166 51L26.775 53.275C26.6583 53.275 26.5416 53.275 26.425 53.275ZM30.275 52.9834L29.925 50.7667C30.625 50.65 31.325 50.5333 32.025 50.3584L32.55 52.575C31.85 52.6917 31.0333 52.8667 30.275 52.9834ZM20.8833 52.6917C20.125 52.5167 19.3666 52.3417 18.6083 52.1084L19.3083 49.95C20.0083 50.1833 20.7083 50.3583 21.4083 50.475L20.8833 52.6917ZM15.2833 50.825C14.5833 50.475 13.8833 50.125 13.1833 49.7167L14.35 47.7917C14.9916 48.1417 15.6333 48.4917 16.275 48.7833L15.2833 50.825ZM10.2666 47.675C9.62496 47.2084 9.04163 46.6833 8.45829 46.1L10.0333 44.4667C10.5583 44.9334 11.0833 45.4583 11.6666 45.8667L10.2666 47.675ZM6.06663 43.5333C5.59996 42.8917 5.07496 42.25 4.66663 41.6084L6.53329 40.3834C6.94163 40.9667 7.34996 41.55 7.81662 42.1334L6.06663 43.5333ZM2.91663 38.575C2.56663 37.875 2.27496 37.1167 1.98329 36.4167L4.08329 35.6C4.31663 36.3 4.60829 36.9417 4.95829 37.5834L2.91663 38.575ZM0.933293 32.975C0.758293 32.2167 0.641626 31.4 0.524959 30.6417L2.74163 30.35C2.85829 31.05 2.97496 31.75 3.14996 32.45L0.933293 32.975ZM2.56663 27.1417H0.291626C0.291626 26.3833 0.349959 25.5667 0.408293 24.8083L2.68329 25.0417C2.62496 25.6834 2.56663 26.3833 2.56663 27.1417Z" fill="#2E2E2E"/>
</g>
<g id="Group_3">
<path id="Vector_9" d="M52.0333 31.575L49.8166 31.225C49.9333 30.525 50.0499 29.825 50.1083 29.0667L52.3833 29.2417C52.2666 30 52.2083 30.8167 52.0333 31.575ZM50.1083 25.8C50.0499 25.1 49.9916 24.3417 49.8749 23.6417L52.0916 23.2917C52.2083 24.05 52.2666 24.8667 52.3249 25.625L50.1083 25.8ZM49.1749 20.4917C48.9999 19.7917 48.7666 19.0917 48.4749 18.45L50.5749 17.6333C50.8666 18.3917 51.0999 19.0917 51.3333 19.85L49.1749 20.4917ZM47.1333 15.5333C46.7833 14.8917 46.3749 14.3083 45.9666 13.725L47.8333 12.4417C48.2999 13.0833 48.7083 13.7833 49.0583 14.425L47.1333 15.5333ZM43.9833 11.1583C43.5166 10.6333 42.9916 10.1083 42.4666 9.64167L43.9833 7.95C44.5666 8.475 45.1499 9.05833 45.6749 9.64167L43.9833 11.1583ZM39.8999 7.6C39.3166 7.19167 38.6749 6.78333 38.0916 6.43333L39.1999 4.45C39.8999 4.85833 40.5416 5.26667 41.1833 5.73333L39.8999 7.6ZM35.1749 5.09167C34.4749 4.8 33.8333 4.56667 33.1333 4.33333L33.7749 2.175C34.5333 2.40833 35.2916 2.64167 35.9916 2.93333L35.1749 5.09167ZM22.4583 3.69167L22.1083 1.475C22.8666 1.35833 23.6833 1.24167 24.4416 1.18333L24.6166 3.45833C23.8583 3.51667 23.1583 3.575 22.4583 3.69167ZM29.9833 3.63333C29.2833 3.51667 28.5249 3.45833 27.8249 3.4L27.9416 1.125C28.6999 1.18333 29.5166 1.24167 30.2749 1.35833L29.9833 3.63333Z" fill="#2E2E2E"/>
</g>
</g>
<defs>
<clipPath id="clip0_0_194">
<rect width="56" height="56" fill="white" transform="translate(0 0.833344)"/>
</clipPath>
</defs>
</svg>
